<svg version="1.1" id="Layer_1" xmlns="http://www.w3.org/2000/svg" xmlns:xlink="http://www.w3.org/1999/xlink" x="0px" y="0px"
	 width="100%" viewBox="0 0 300 107" enable-background="new 0 0 300 107" xml:space="preserve">
<path fill="#FFFFFF" opacity="1.000000" stroke="none" 
	d="
M222.000000,1.000000 
	C248.318008,1.000000 274.636017,1.000000 300.976990,1.000000 
	C300.976990,36.630573 300.976990,72.261162 300.976990,107.945877 
	C201.094299,107.945877 101.188576,107.945877 1.141421,107.945877 
	C1.141421,72.448868 1.141421,36.896992 1.141421,1.000000 
	C53.687057,1.000000 106.374870,1.000000 159.487244,1.366545 
	C158.274139,2.489587 156.636459,3.246084 154.591919,4.052707 
	C151.935913,4.402020 149.603149,4.433079 147.468323,5.098793 
	C146.141953,5.512400 145.115433,6.887534 143.926727,8.194418 
	C143.937073,9.040337 143.975021,9.522939 143.971115,10.403824 
	C143.949432,11.868751 143.969589,12.935396 143.947876,14.333796 
	C143.933731,15.109669 143.961502,15.553788 143.950989,16.465485 
	C143.940475,27.621923 143.968262,38.310787 143.951141,49.373516 
	C143.936905,50.498535 143.967606,51.249683 143.959030,52.427879 
	C143.945587,54.569355 143.971390,56.283794 143.951172,58.459625 
	C143.898148,61.738495 143.677704,64.578957 143.977676,67.363358 
	C144.119354,68.678436 145.258392,69.886070 146.290085,71.370903 
	C154.113770,71.682434 161.593277,71.858681 169.071930,71.827805 
	C182.038025,71.774269 195.003571,71.592529 208.213913,71.615280 
	C208.638870,71.826057 208.819260,71.886101 209.035873,72.253632 
	C209.488907,72.885330 209.905746,73.209557 210.322571,73.533775 
	C210.546677,72.992393 210.770767,72.451004 211.323120,71.836960 
	C212.111816,70.844070 212.572266,69.923843 213.426849,68.909012 
	C214.207870,68.142212 214.926910,67.472450 214.931870,66.797455 
	C215.007462,56.493179 215.042221,46.187531 214.908096,35.884529 
	C214.895477,34.914616 213.682602,33.960335 212.974182,32.686615 
	C212.843033,31.960842 212.764694,31.547249 212.994659,30.929443 
	C212.928497,29.834917 212.554016,28.944605 212.179535,28.054291 
	C211.117371,28.998186 210.055206,29.942081 208.529160,30.937870 
	C203.043976,30.957829 198.022659,30.925892 192.922989,30.538845 
	C189.880371,28.440956 184.902130,28.616295 186.124298,22.716213 
	C186.499924,21.663715 186.755157,20.896074 187.425659,20.076681 
	C189.233368,20.060093 190.625824,20.095261 192.110321,20.275719 
	C192.462616,20.317923 192.722824,20.214834 193.449341,20.057537 
	C199.610855,19.932768 205.306091,19.862206 211.222427,19.862259 
	C211.443542,19.932875 211.906754,19.958458 212.298431,19.969900 
	C213.551956,19.125494 214.958023,18.378143 215.155060,17.389757 
	C215.497528,15.671980 215.093109,13.805309 215.371796,11.960682 
	C222.409485,10.905875 222.236557,5.971173 222.000000,1.000000 
M128.626282,13.548158 
	C128.484680,12.371010 128.343094,11.193861 128.058411,9.357902 
	C126.984985,9.078730 125.911552,8.799558 124.398277,8.459386 
	C124.398277,8.459386 124.009453,8.673884 123.369804,8.584712 
	C122.729820,8.656707 122.089836,8.728701 120.822685,8.288298 
	C119.238121,8.231771 117.653564,8.175244 115.363541,8.354877 
	C115.281441,10.561318 115.199333,12.767759 115.151024,15.670152 
	C115.250992,16.121277 115.350960,16.572401 115.236710,17.932453 
	C115.197472,33.015213 115.105675,48.098083 115.136276,63.180702 
	C115.159126,74.442513 115.340034,85.703995 115.292244,97.643883 
	C116.189598,98.195702 117.086960,98.747520 118.036812,100.094788 
	C119.832039,100.729836 121.625099,101.911263 123.422798,101.918365 
	C152.614853,102.033707 181.807495,102.000183 211.753220,101.989799 
	C213.036224,100.418419 215.162613,98.972015 215.418060,97.248352 
	C215.879669,94.133553 215.223633,90.853119 215.012711,87.275314 
	C214.286606,87.206657 213.175812,87.101624 211.933716,86.631111 
	C211.933716,86.631111 211.897964,86.244423 211.903183,85.471809 
	C210.377289,80.861893 206.989746,84.200172 204.771164,84.173424 
	C181.408859,83.891830 158.041779,83.977509 134.676239,84.040314 
	C132.781448,84.045403 130.888199,84.629738 128.595032,84.950394 
	C128.595032,84.950394 128.195999,84.937408 128.094452,84.013680 
	C128.036331,61.675632 127.978203,39.337589 128.025803,16.247608 
	C127.994408,15.490325 127.963013,14.733042 128.059616,14.020888 
	C128.059616,14.020888 128.195312,14.018044 128.626282,13.548158 
z"/>
<path fill="#FFFFFF" opacity="1.000000" stroke="none" 
	d="
M165.000000,0.999998 
	C168.692902,1.000000 172.385818,1.000000 176.465164,1.370097 
	C176.036591,2.157270 175.233978,2.905440 174.404510,2.936471 
	C169.802887,3.108623 168.045547,5.546204 167.960602,9.967999 
	C167.768341,19.976141 166.923111,29.996988 167.306198,39.975708 
	C167.422684,43.010193 170.519867,46.062046 172.721451,48.716476 
	C172.994080,49.045204 176.170410,46.965611 178.465729,46.001400 
	C183.286835,46.000694 187.643417,46.000576 192.227844,46.275208 
	C196.320923,47.640617 196.794525,49.985897 195.203903,53.370682 
	C194.914368,53.986790 195.705368,55.110672 195.997772,56.329781 
	C195.996582,57.098614 195.995163,57.537819 195.778046,58.079834 
	C195.279709,58.362942 195.096695,58.615456 194.544113,58.920410 
	C184.713348,58.812283 175.351791,58.723930 165.898499,58.322330 
	C160.371033,56.316917 159.425919,51.012085 156.848145,46.556419 
	C156.723312,37.757202 156.670456,29.364382 156.884430,20.870071 
	C157.134796,19.530987 157.118332,18.293394 157.072815,16.675009 
	C157.055359,15.531171 157.066971,14.768124 157.455002,13.993576 
	C160.220947,9.654716 162.610474,5.327356 165.000000,0.999998 
z"/>
<path fill="#FEFEFB" opacity="1.000000" stroke="none" 
	d="
M178.001221,46.001984 
	C176.170410,46.965611 172.994080,49.045204 172.721451,48.716476 
	C170.519867,46.062046 167.422684,43.010193 167.306198,39.975708 
	C166.923111,29.996988 167.768341,19.976141 167.960602,9.967999 
	C168.045547,5.546204 169.802887,3.108623 174.404510,2.936471 
	C175.233978,2.905440 176.036591,2.157270 176.925812,1.370097 
	C191.687561,1.000000 206.375122,1.000000 221.531342,1.000000 
	C222.236557,5.971173 222.409485,10.905875 215.366608,11.594681 
	C214.006989,9.832998 213.022491,8.396932 211.988022,6.626849 
	C211.291092,5.661407 210.644119,5.029981 209.997147,4.398554 
	C209.663696,5.235518 209.330246,6.072484 208.530457,6.957308 
	C197.709579,6.965720 187.355042,6.926274 176.968445,6.579228 
	C175.051788,3.076123 173.916809,4.351101 172.692505,7.226837 
	C172.275711,19.348921 172.167145,31.175758 172.114471,43.226234 
	C172.367783,43.735134 172.637253,43.847088 173.235336,43.851509 
	C173.660385,43.970364 173.828812,44.023441 174.068527,44.428650 
	C175.426941,45.187847 176.714081,45.594913 178.001221,46.001984 
z"/>
<path fill="#FEFEFB" opacity="1.000000" stroke="none" 
	d="
M164.583344,0.999998 
	C162.610474,5.327356 160.220947,9.654716 157.425568,13.570707 
	C156.358398,11.140971 155.697113,9.122602 155.025299,6.716588 
	C155.009445,5.553489 155.004120,4.778034 154.998779,4.002581 
	C156.636459,3.246084 158.274139,2.489587 159.955902,1.366545 
	C161.388885,1.000000 162.777786,1.000000 164.583344,0.999998 
z"/>
<path fill="#CABD95" opacity="1.000000" stroke="none" 
	d="
M177.000488,6.886827 
	C187.355042,6.926274 197.709579,6.965720 208.862213,7.013852 
	C210.106216,7.068570 210.552124,7.114602 211.101959,7.340240 
	C211.383606,7.741045 211.604340,7.903966 211.916870,8.463861 
	C211.919846,12.276997 211.874039,15.634881 211.657440,19.089342 
	C211.270294,19.344099 211.108521,19.546009 211.001312,19.791645 
	C205.306091,19.862206 199.610855,19.932768 193.207458,20.023178 
	C192.499283,20.043026 192.018265,20.130428 192.018265,20.130428 
	C190.625824,20.095261 189.233368,20.060093 187.048981,20.021749 
	C185.546326,21.012871 184.835632,22.007172 184.073120,23.448711 
	C184.021317,26.131105 184.021317,28.366259 184.021317,30.893957 
	C187.480026,30.893957 190.240692,30.893957 193.001358,30.893957 
	C198.022659,30.925892 203.043976,30.957829 208.778717,31.029554 
	C209.660614,31.124002 209.829071,31.178659 210.006042,31.563786 
	C210.869446,32.597713 211.724319,33.301170 212.678741,34.460526 
	C212.715607,39.942074 212.652924,44.967731 212.263657,50.009701 
	C211.357910,50.624237 210.778763,51.222458 210.199615,51.820679 
	C210.996567,52.216011 211.793518,52.611340 212.686615,53.462303 
	C212.728500,58.602318 212.674240,63.286701 212.286102,67.986839 
	C210.624603,69.156586 209.296982,70.310570 207.969345,71.464561 
	C195.003571,71.592529 182.038025,71.774269 169.071930,71.827805 
	C161.593277,71.858681 154.113770,71.682434 146.264923,70.945114 
	C145.262527,66.193283 144.629852,62.095757 143.997192,57.998230 
	C143.971390,56.283794 143.945587,54.569355 144.293991,52.379288 
	C144.444153,50.935650 144.220093,49.967651 143.996048,48.999649 
	C143.968262,38.310787 143.940475,27.621923 144.251678,16.429163 
	C144.911926,15.516554 145.233200,15.107843 145.554459,14.699132 
	C145.032898,14.466768 144.511322,14.234405 143.989761,14.002041 
	C143.969589,12.935396 143.949432,11.868751 144.279953,10.366570 
	C145.089691,9.334945 145.548752,8.738856 146.425400,8.096689 
	C149.208389,8.412703 151.573761,8.774793 154.123596,9.475622 
	C154.943176,12.215863 155.578323,14.617365 156.199188,17.420475 
	C156.329132,18.871908 156.473373,19.921734 156.617615,20.971558 
	C156.670456,29.364382 156.723312,37.757202 156.612900,46.874489 
	C156.479721,50.057571 156.509811,52.516186 156.403244,55.315067 
	C156.512131,56.760094 156.757690,57.864853 157.053604,59.364719 
	C158.730667,60.506504 160.343231,61.860771 161.986389,61.898945 
	C171.062790,62.109798 180.149353,62.117371 189.225739,61.906071 
	C191.173279,61.860725 193.093140,60.625439 195.394073,59.964211 
	C197.107147,59.301258 198.451889,58.612415 199.843597,57.602325 
	C199.855774,56.850323 199.820953,56.419567 199.859680,55.564232 
	C199.268402,51.764824 198.603592,48.389996 198.257507,45.010071 
	C199.144363,44.805931 199.712479,44.606884 200.280609,44.407837 
	C199.521881,43.934601 198.763153,43.461361 197.923035,42.611126 
	C195.099854,40.684002 192.351593,39.104671 190.525497,43.821869 
	C185.382156,43.838531 180.699493,43.789043 175.998383,43.339409 
	C175.653000,35.175304 175.156860,27.413290 175.067520,19.646597 
	C175.019852,15.503429 175.674881,11.352178 176.257904,7.119542 
	C176.668839,6.985282 176.834671,6.936055 177.000488,6.886827 
z"/>
<path fill="#C9BC96" opacity="1.000000" stroke="none" 
	d="
M124.009453,8.673884 
	C124.009453,8.673884 124.398277,8.459386 124.742767,8.833244 
	C126.018105,9.806699 126.948952,10.406295 127.924164,11.382465 
	C128.044113,12.512041 128.119720,13.265042 128.195312,14.018044 
	C128.195312,14.018044 128.059616,14.020888 127.670837,14.058948 
	C127.494736,15.064519 127.707405,16.032030 127.920074,16.999542 
	C127.978203,39.337589 128.036331,61.675632 128.164215,84.723267 
	C128.380432,85.768929 128.635803,85.957779 129.466888,86.046310 
	C157.255127,86.143623 184.576538,86.194023 211.897964,86.244423 
	C211.897964,86.244423 211.933716,86.631111 211.970154,87.267395 
	C211.952515,90.930519 211.898453,93.957359 211.506805,96.995056 
	C210.445251,97.659676 209.721283,98.313438 208.530167,99.006393 
	C178.376831,99.014145 148.690643,98.982712 118.946579,98.617737 
	C117.742653,97.844673 116.596603,97.405144 115.450562,96.965622 
	C115.340034,85.703995 115.159126,74.442513 115.136276,63.180702 
	C115.105675,48.098083 115.197472,33.015213 115.651794,17.460852 
	C116.712624,16.325310 117.358360,15.661368 118.371796,15.040242 
	C120.133842,15.722583 121.528183,16.362110 124.009453,17.500162 
	C124.009453,13.999886 124.009453,11.336884 124.009453,8.673884 
z"/>
<path fill="#FFFEF4" opacity="1.000000" stroke="none" 
	d="
M119.004456,98.951286 
	C148.690643,98.982712 178.376831,99.014145 208.868088,99.057739 
	C210.118378,99.161095 210.563599,99.252274 211.139099,99.549545 
	C211.179596,100.503853 211.089798,101.252083 211.000000,102.000305 
	C181.807495,102.000183 152.614853,102.033707 123.422798,101.918365 
	C121.625099,101.911263 119.832039,100.729836 118.260361,99.593475 
	C118.657417,99.045197 118.830940,98.998238 119.004456,98.951286 
z"/>
<path fill="#FFFEF4" opacity="1.000000" stroke="none" 
	d="
M211.900574,85.858116 
	C184.576538,86.194023 157.255127,86.143623 129.468445,85.782677 
	C129.000198,85.296387 128.997208,85.120651 128.994232,84.944916 
	C130.888199,84.629738 132.781448,84.045403 134.676239,84.040314 
	C158.041779,83.977509 181.408859,83.891830 204.771164,84.173424 
	C206.989746,84.200172 210.377289,80.861893 211.900574,85.858116 
z"/>
<path fill="#FFFEF5" opacity="1.000000" stroke="none" 
	d="
M212.619965,67.971085 
	C212.674240,63.286701 212.728500,58.602318 212.791214,53.091927 
	C212.729858,51.508408 212.660049,50.750896 212.590240,49.993385 
	C212.652924,44.967731 212.715607,39.942074 212.805145,34.214901 
	C212.896988,33.341858 212.961990,33.170330 213.026978,32.998798 
	C213.682602,33.960335 214.895477,34.914616 214.908096,35.884529 
	C215.042221,46.187531 215.007462,56.493179 214.931870,66.797455 
	C214.926910,67.472450 214.207870,68.142212 213.338654,68.644836 
	C212.777542,68.307205 212.698746,68.139145 212.619965,67.971085 
z"/>
<path fill="#FFFEF5" opacity="1.000000" stroke="none" 
	d="
M211.376617,101.995056 
	C211.089798,101.252083 211.179596,100.503853 211.387299,99.320557 
	C211.618271,98.251717 211.731339,97.617958 211.844406,96.984192 
	C211.898453,93.957359 211.952515,90.930519 212.035797,87.450134 
	C213.175812,87.101624 214.286606,87.206657 215.012711,87.275314 
	C215.223633,90.853119 215.879669,94.133553 215.418060,97.248352 
	C215.162613,98.972015 213.036224,100.418419 211.376617,101.995056 
z"/>
<path fill="#C8BA91" opacity="1.000000" stroke="none" 
	d="
M123.689629,8.629298 
	C124.009453,11.336884 124.009453,13.999886 124.009453,17.500162 
	C121.528183,16.362110 120.133842,15.722583 118.370605,14.631264 
	C117.854729,11.555491 117.987274,9.110713 121.449852,8.800694 
	C122.089836,8.728701 122.729820,8.656707 123.689629,8.629298 
z"/>
<path fill="#FFFEF5" opacity="1.000000" stroke="none" 
	d="
M211.828247,18.992765 
	C211.874039,15.634881 211.919846,12.276997 211.955200,8.226637 
	C211.944733,7.534161 211.946213,7.053708 211.969238,7.030583 
	C211.992264,7.007460 212.037979,6.960867 212.037979,6.960866 
	C213.022491,8.396932 214.006989,9.832998 214.996674,11.635066 
	C215.093109,13.805309 215.497528,15.671980 215.155060,17.389757 
	C214.958023,18.378143 213.551956,19.125494 212.304016,19.726555 
	C211.917923,19.471769 211.828247,18.992765 211.828247,18.992765 
z"/>
<path fill="#FFFEF4" opacity="1.000000" stroke="none" 
	d="
M153.939148,9.136886 
	C151.573761,8.774793 149.208389,8.412703 146.085220,8.032288 
	C144.869736,7.953009 144.412033,7.892055 143.954330,7.831101 
	C145.115433,6.887534 146.141953,5.512400 147.468323,5.098793 
	C149.603149,4.433079 151.935913,4.402020 154.591919,4.052706 
	C155.004120,4.778034 155.009445,5.553489 154.996185,7.018991 
	C154.631439,8.184986 154.285294,8.660937 153.939148,9.136886 
z"/>
<path fill="#FFFEF5" opacity="1.000000" stroke="none" 
	d="
M192.922989,30.538845 
	C190.240692,30.893957 187.480026,30.893957 184.021317,30.893957 
	C184.021317,28.366259 184.021317,26.131105 184.385574,23.448299 
	C185.167862,23.000788 185.585876,23.000927 186.003906,23.001068 
	C184.902130,28.616295 189.880371,28.440956 192.922989,30.538845 
z"/>
<path fill="#C8BC9E" opacity="1.000000" stroke="none" 
	d="
M121.136269,8.544497 
	C117.987274,9.110713 117.854729,11.555491 118.002907,14.588449 
	C117.358360,15.661368 116.712624,16.325310 115.758911,17.006388 
	C115.350960,16.572401 115.250992,16.121277 115.400032,15.048487 
	C115.789024,12.324121 115.929016,10.221419 116.069000,8.118718 
	C117.653564,8.175244 119.238121,8.231771 121.136269,8.544497 
z"/>
<path fill="#C5BEA2" opacity="1.000000" stroke="none" 
	d="
M212.286102,67.986839 
	C212.698746,68.139145 212.777542,68.307205 212.944519,68.739441 
	C212.572266,69.923843 212.111816,70.844070 210.990509,71.814743 
	C209.886307,71.892181 209.442993,71.919167 208.999664,71.946152 
	C208.819260,71.886101 208.638870,71.826057 208.213913,71.615280 
	C209.296982,70.310570 210.624603,69.156586 212.286102,67.986839 
z"/>
<path fill="#C5BEA2" opacity="1.000000" stroke="none" 
	d="
M143.951172,58.459625 
	C144.629852,62.095757 145.262527,66.193283 145.920364,70.716599 
	C145.258392,69.886070 144.119354,68.678436 143.977676,67.363358 
	C143.677704,64.578957 143.898148,61.738495 143.951172,58.459625 
z"/>
<path fill="#FFFEF5" opacity="1.000000" stroke="none" 
	d="
M209.997528,31.233318 
	C209.829071,31.178659 209.660614,31.124002 209.242599,30.977661 
	C210.055206,29.942081 211.117371,28.998186 212.179535,28.054291 
	C212.554016,28.944605 212.928497,29.834917 212.661072,30.921654 
	C211.345291,31.156490 210.671417,31.194904 209.997528,31.233318 
z"/>
<path fill="#DBD5BE" opacity="1.000000" stroke="none" 
	d="
M115.716270,8.236797 
	C115.929016,10.221419 115.789024,12.324121 115.383133,14.700512 
	C115.199333,12.767759 115.281441,10.561318 115.716270,8.236797 
z"/>
<path fill="#C9BC96" opacity="1.000000" stroke="none" 
	d="
M210.006042,31.563786 
	C210.671417,31.194904 211.345291,31.156490 212.352768,31.125866 
	C212.764694,31.547249 212.843033,31.960842 212.974182,32.686615 
	C212.961990,33.170330 212.896988,33.341858 212.705597,33.759003 
	C211.724319,33.301170 210.869446,32.597713 210.006042,31.563786 
z"/>
<path fill="#C8BC9E" opacity="1.000000" stroke="none" 
	d="
M127.879807,11.005892 
	C126.948952,10.406295 126.018105,9.806699 124.962692,8.863744 
	C125.911552,8.799558 126.984985,9.078730 128.041077,9.931868 
	C127.975754,10.672520 127.927780,10.839207 127.879807,11.005892 
z"/>
<path fill="#C8BDA1" opacity="1.000000" stroke="none" 
	d="
M118.946579,98.617737 
	C118.830940,98.998238 118.657417,99.045197 118.234108,99.195755 
	C117.086960,98.747520 116.189598,98.195702 115.371399,97.304749 
	C116.596603,97.405144 117.742653,97.844673 118.946579,98.617737 
z"/>
<path fill="#FFFEF4" opacity="1.000000" stroke="none" 
	d="
M186.124298,22.716213 
	C185.585876,23.000927 185.167862,23.000788 184.437378,23.001060 
	C184.835632,22.007172 185.546326,21.012871 186.633698,20.073503 
	C186.755157,20.896074 186.499924,21.663715 186.124298,22.716213 
z"/>
<path fill="#C5BEA2" opacity="1.000000" stroke="none" 
	d="
M143.951111,49.373520 
	C144.220093,49.967651 144.444153,50.935650 144.333252,51.952244 
	C143.967606,51.249683 143.936905,50.498535 143.951111,49.373520 
z"/>
<path fill="#C8BC9E" opacity="1.000000" stroke="none" 
	d="
M127.972939,16.623575 
	C127.707405,16.032030 127.494736,15.064519 127.606842,14.036383 
	C127.963013,14.733042 127.994408,15.490325 127.972939,16.623575 
z"/>
<path fill="#C5BEA2" opacity="1.000000" stroke="none" 
	d="
M143.926727,8.194417 
	C144.412033,7.892055 144.869736,7.953009 145.667618,8.078365 
	C145.548752,8.738856 145.089691,9.334945 144.321808,9.968287 
	C143.975021,9.522939 143.937073,9.040337 143.926727,8.194417 
z"/>
<path fill="#FBF4E3" opacity="1.000000" stroke="none" 
	d="
M127.924164,11.382466 
	C127.927780,10.839207 127.975754,10.672520 128.112610,10.261272 
	C128.343094,11.193861 128.484680,12.371010 128.410797,13.783100 
	C128.119720,13.265042 128.044113,12.512041 127.924164,11.382466 
z"/>
<path fill="#FFFEF4" opacity="1.000000" stroke="none" 
	d="
M209.035873,72.253632 
	C209.442993,71.919167 209.886307,71.892181 210.662262,71.887405 
	C210.770767,72.451004 210.546677,72.992393 210.322571,73.533775 
	C209.905746,73.209557 209.488907,72.885330 209.035873,72.253632 
z"/>
<path fill="#C5BEA2" opacity="1.000000" stroke="none" 
	d="
M143.947876,14.333796 
	C144.511322,14.234405 145.032898,14.466768 145.554459,14.699132 
	C145.233200,15.107843 144.911926,15.516554 144.289978,15.961586 
	C143.961502,15.553788 143.933731,15.109669 143.947876,14.333796 
z"/>
<path fill="#FBF4E3" opacity="1.000000" stroke="none" 
	d="
M128.794632,84.947655 
	C128.997208,85.120651 129.000198,85.296387 129.001617,85.735764 
	C128.635803,85.957779 128.380432,85.768929 128.214981,85.185127 
	C128.195999,84.937408 128.595032,84.950394 128.794632,84.947655 
z"/>
<path fill="#FFFEF4" opacity="1.000000" stroke="none" 
	d="
M192.110321,20.275719 
	C192.018265,20.130428 192.499283,20.043026 192.741165,20.077385 
	C192.722824,20.214834 192.462616,20.317923 192.110321,20.275719 
z"/>
<path fill="#CCC5AC" opacity="1.000000" stroke="none" 
	d="
M211.657440,19.089342 
	C211.828247,18.992765 211.917923,19.471769 211.912338,19.715115 
	C211.906754,19.958458 211.443542,19.932875 211.222427,19.862259 
	C211.108521,19.546009 211.270294,19.344099 211.657440,19.089342 
z"/>
<path fill="#C6BE9B" opacity="1.000000" stroke="none" 
	d="
M195.025742,59.938316 
	C193.093140,60.625439 191.173279,61.860725 189.225739,61.906071 
	C180.149353,62.117371 171.062790,62.109798 161.986389,61.898945 
	C160.343231,61.860771 158.730667,60.506504 157.432343,59.347515 
	C158.512558,58.853943 159.264435,58.772682 160.438370,58.766621 
	C162.570374,58.773071 164.280289,58.704323 165.990219,58.635574 
	C175.351791,58.723930 184.713348,58.812283 194.537903,59.170261 
	C195.000870,59.439888 195.025742,59.938316 195.025742,59.938316 
z"/>
<path fill="#FEFEFB" opacity="1.000000" stroke="none" 
	d="
M197.938766,45.015171 
	C198.603592,48.389996 199.268402,51.764824 199.483551,55.567398 
	C198.021790,55.996815 197.009674,55.998486 195.997559,56.000153 
	C195.705368,55.110672 194.914368,53.986790 195.203903,53.370682 
	C196.794525,49.985897 196.320923,47.640617 192.228424,45.960556 
	C192.002762,44.951641 192.004333,44.532124 192.377960,44.064011 
	C193.500015,44.009338 194.250000,44.003258 195.175705,44.279961 
	C196.213867,44.713558 197.076309,44.864365 197.938766,45.015171 
z"/>
<path fill="#FEFEFB" opacity="1.000000" stroke="none" 
	d="
M165.898499,58.322330 
	C164.280289,58.704323 162.570374,58.773071 160.426758,58.434013 
	C158.842010,57.009071 157.690948,55.991936 156.539902,54.974800 
	C156.509811,52.516186 156.479721,50.057571 156.684875,47.280884 
	C159.425919,51.012085 160.371033,56.316917 165.898499,58.322330 
z"/>
<path fill="#FFFEF4" opacity="1.000000" stroke="none" 
	d="
M192.005920,44.112606 
	C192.004333,44.532124 192.002762,44.951641 192.000595,45.685806 
	C187.643417,46.000576 183.286835,46.000694 178.465729,46.001396 
	C176.714081,45.594913 175.426941,45.187847 174.406174,44.376553 
	C175.120636,43.894733 175.568741,43.817142 176.016830,43.739552 
	C180.699493,43.789043 185.382156,43.838531 190.778580,43.917183 
	C191.663544,44.001766 191.834732,44.057186 192.005920,44.112606 
z"/>
<path fill="#E2DCC7" opacity="1.000000" stroke="none" 
	d="
M154.123596,9.475624 
	C154.285294,8.660937 154.631439,8.184986 155.006714,7.406634 
	C155.697113,9.122602 156.358398,11.140971 157.049133,13.582209 
	C157.066971,14.768124 157.055359,15.531171 156.849762,16.678524 
	C156.655746,17.062830 156.213455,17.018866 156.213455,17.018866 
	C155.578323,14.617365 154.943176,12.215863 154.123596,9.475624 
z"/>
<path fill="#F2ECD6" opacity="1.000000" stroke="none" 
	d="
M195.394073,59.964211 
	C195.025742,59.938316 195.000870,59.439888 195.007080,59.190033 
	C195.096695,58.615456 195.279709,58.362942 196.160675,58.089046 
	C197.771530,57.971493 198.784088,57.947529 199.796631,57.923569 
	C198.451889,58.612415 197.107147,59.301258 195.394073,59.964211 
z"/>
<path fill="#FEFEFB" opacity="1.000000" stroke="none" 
	d="
M156.199188,17.420475 
	C156.213455,17.018866 156.655746,17.062830 156.878815,17.059315 
	C157.118332,18.293394 157.134796,19.530987 156.884430,20.870070 
	C156.473373,19.921734 156.329132,18.871908 156.199188,17.420475 
z"/>
<path fill="#FFFEF5" opacity="1.000000" stroke="none" 
	d="
M199.843597,57.602325 
	C198.784088,57.947529 197.771530,57.971493 196.376373,57.986237 
	C195.995163,57.537819 195.996582,57.098614 195.997772,56.329781 
	C197.009674,55.998486 198.021790,55.996815 199.410019,55.991982 
	C199.820953,56.419567 199.855774,56.850323 199.843597,57.602325 
z"/>
<path fill="#C8BC9E" opacity="1.000000" stroke="none" 
	d="
M175.998383,43.339409 
	C175.568741,43.817142 175.120636,43.894733 174.334900,44.024422 
	C173.828812,44.023441 173.660385,43.970364 173.124390,43.677750 
	C172.566467,43.225086 172.333725,43.079884 172.058578,43.002594 
	C172.167145,31.175758 172.275711,19.348921 173.068680,7.266653 
	C174.506317,7.075672 175.259537,7.140123 176.012772,7.204574 
	C175.674881,11.352178 175.019852,15.503429 175.067520,19.646597 
	C175.156860,27.413290 175.653000,35.175304 175.998383,43.339409 
z"/>
<path fill="#FFFEF5" opacity="1.000000" stroke="none" 
	d="
M176.257904,7.119542 
	C175.259537,7.140123 174.506317,7.075672 173.376907,6.971405 
	C173.916809,4.351101 175.051788,3.076123 176.968445,6.579228 
	C176.834671,6.936055 176.668839,6.985282 176.257904,7.119542 
z"/>
<path fill="#FFFEF5" opacity="1.000000" stroke="none" 
	d="
M210.998032,7.160633 
	C210.552124,7.114602 210.106216,7.068570 209.328552,6.965995 
	C209.330246,6.072484 209.663696,5.235518 209.997147,4.398554 
	C210.644119,5.029981 211.291092,5.661407 211.988022,6.626850 
	C212.037979,6.960867 211.992264,7.007460 211.729538,7.031392 
	C211.466812,7.055325 210.998032,7.160633 210.998032,7.160633 
z"/>
<path fill="#CCC5AC" opacity="1.000000" stroke="none" 
	d="
M172.114471,43.226234 
	C172.333725,43.079884 172.566467,43.225086 172.867767,43.611969 
	C172.637253,43.847088 172.367783,43.735134 172.114471,43.226234 
z"/>
<path fill="#C8BC9E" opacity="1.000000" stroke="none" 
	d="
M192.377960,44.064011 
	C191.834732,44.057186 191.663544,44.001766 191.239258,43.851028 
	C192.351593,39.104671 195.099854,40.684002 197.584137,42.616955 
	C196.551086,43.332241 195.775543,43.664707 195.000000,43.997173 
	C194.250000,44.003258 193.500015,44.009338 192.377960,44.064011 
z"/>
<path fill="#FFFEF5" opacity="1.000000" stroke="none" 
	d="
M156.403244,55.315067 
	C157.690948,55.991936 158.842010,57.009071 160.004669,58.358814 
	C159.264435,58.772682 158.512558,58.853943 157.381958,58.952408 
	C156.757690,57.864853 156.512131,56.760094 156.403244,55.315067 
z"/>
<path fill="#CCC5AC" opacity="1.000000" stroke="none" 
	d="
M195.175705,44.279961 
	C195.775543,43.664707 196.551086,43.332241 197.665527,42.993950 
	C198.763153,43.461361 199.521881,43.934601 200.280609,44.407837 
	C199.712479,44.606884 199.144363,44.805931 198.257507,45.010071 
	C197.076309,44.864365 196.213867,44.713558 195.175705,44.279961 
z"/>
<path fill="#C9BC96" opacity="1.000000" stroke="none" 
	d="
M212.263657,50.009701 
	C212.660049,50.750896 212.729858,51.508408 212.695068,52.636292 
	C211.793518,52.611340 210.996567,52.216011 210.199615,51.820679 
	C210.778763,51.222458 211.357910,50.624237 212.263657,50.009701 
z"/>
<path fill="#CCC5AC" opacity="1.000000" stroke="none" 
	d="
M211.101959,7.340240 
	C210.998032,7.160633 211.466812,7.055325 211.706512,7.054516 
	C211.946213,7.053708 211.944733,7.534161 211.906418,7.771386 
	C211.604340,7.903966 211.383606,7.741045 211.101959,7.340240 
z"/>
<path fill="#C8BDA1" opacity="1.000000" stroke="none" 
	d="
M211.506805,96.995056 
	C211.731339,97.617958 211.618271,98.251717 211.257019,99.114471 
	C210.563599,99.252274 210.118378,99.161095 209.335236,99.018562 
	C209.721283,98.313438 210.445251,97.659676 211.506805,96.995056 
z"/>
</svg>