<?xml version="1.0" encoding="utf-8"?>
<!-- Generator: Adobe Illustrator 24.3.0, SVG Export Plug-In . SVG Version: 6.00 Build 0)  -->
<svg version="1.1" id="Layer_1" xmlns="http://www.w3.org/2000/svg" xmlns:xlink="http://www.w3.org/1999/xlink" x="0px" y="0px"
	 viewBox="0 0 1444.6 515.7" style="enable-background:new 0 0 1444.6 515.7;" xml:space="preserve">
<style type="text/css">
	.st0{fill:#CABC95;}
	.st1{fill:#383838;}
</style>
<g>
	<g>
		<polygon class="st0" points="1398.9,151.5 1263.5,151.5 1263.5,97.5 1398.8,97.5 1398.8,35.8 1201.7,35.8 1201.7,213.2 
			1337.2,213.2 1337.2,284.9 1128,284.9 1128,36.5 1066.3,36.5 1066.3,346.6 1398.9,346.6 		"/>
		<polygon class="st0" points="991.5,418.1 991.5,36.5 929.8,36.5 929.8,479.8 1398.9,479.8 1398.9,418.1 		"/>
	</g>
	<g>
		<path class="st1" d="M57.3,165.8c0,6.2,1.6,10.5,4.7,12.9c3.1,2.4,8.7,3.6,16.7,3.6c12.3,0,18.5-3.3,18.5-9.8
			c0-2.4-0.8-4.2-2.3-5.5c-1.5-1.3-4.4-2.7-8.7-4c-6.1-1.9-10.4-4.3-13-7.1c-2.8-3.1-4.2-7.1-4.2-12.3c0-6.8,2.1-11.9,6.4-15.3
			c3.6-2.8,8.4-4.2,14.4-4.2c3.8,0,7.5,0.6,11.2,1.7v8.8c-3.5-0.9-6.5-1.3-9.2-1.3c-3.6,0-6.5,0.9-8.5,2.8s-3.1,4.4-3.1,7.6
			c0,2.6,0.7,4.6,2.2,6c1.5,1.4,4.5,2.9,9.1,4.5c5.8,2.1,10,4.4,12.5,6.9c3.1,3,4.6,6.8,4.6,11.3c0,7.2-3.2,12.5-9.6,15.8
			c-4.6,2.5-10.2,3.7-16.9,3.7h-9.4c-7.4,0-13.5-1.8-18.2-5.4c-5.9-4.4-8.9-11-8.9-19.6v-9.6l5.9-4.7h5.7L57.3,165.8L57.3,165.8z
			 M69.9,197.4c1.7,0,3.2,0.6,4.4,1.8s1.8,2.7,1.8,4.4s-0.6,3.2-1.8,4.4s-2.7,1.8-4.4,1.8s-3.2-0.6-4.4-1.8s-1.8-2.7-1.8-4.4
			s0.6-3.2,1.8-4.4S68.1,197.4,69.9,197.4z M84.3,197.4c1.7,0,3.2,0.6,4.4,1.8c1.2,1.2,1.8,2.7,1.8,4.4s-0.6,3.2-1.8,4.4
			c-1.2,1.2-2.7,1.8-4.4,1.8s-3.1-0.6-4.3-1.8c-1.2-1.2-1.8-2.7-1.8-4.4s0.6-3.2,1.8-4.4S82.7,197.4,84.3,197.4z M146.3,125.3v41.6
			c0,7.9-2.4,14-7.2,18.3c-3.1,2.9-7.1,4.9-12,6c-2.3,0.4-4.7,0.7-7.1,0.7c-0.8,0-1.9-0.1-3.3-0.2l-4.7-5.8v-4.1
			c2,0.3,4,0.5,5.9,0.5c11.2,0,16.9-5.5,16.9-16.4v-40.5C134.7,125.3,146.3,125.3,146.3,125.3z M171.1,100.9V157
			c0,0.6,0.2,1.1,0.6,1.5c0.4,0.6,1,0.9,1.8,0.9h2.5v9.7h-6.2c-2.6,0-4.9-0.9-6.9-2.8c-2.3-2.1-3.4-4.7-3.4-7.7v-57.8L171.1,100.9
			L171.1,100.9z M194.3,159.4c-2.9-3.8-4.3-8.4-4.3-13.8c0-4.9,1.2-9.1,3.7-12.7c4-5.8,9.8-8.8,17.3-8.8c5.7,0,10.5,1.8,14.4,5.3
			c4.5,4.1,6.8,9.5,6.8,16.1c0,5.2-1.4,9.8-4.3,13.8h6.6v9.7h-14.3c-4.1,0-7.1-0.4-9-1.2h-0.5c-1.8,0.8-4.8,1.2-9,1.2h-26.5v-9.7
			H194.3z M204,104.3c1.7,0,3.2,0.6,4.4,1.8c1.2,1.2,1.8,2.7,1.8,4.4c0,1.7-0.6,3.1-1.8,4.3c-1.2,1.2-2.7,1.8-4.4,1.8
			c-1.7,0-3.1-0.6-4.3-1.8c-1.2-1.2-1.8-2.6-1.8-4.3c0-1.7,0.6-3.2,1.8-4.4C200.9,104.9,202.3,104.3,204,104.3z M211,159.3
			c2.9-0.3,5.2-1.6,6.9-4c1.7-2.3,2.6-5.3,2.6-8.9c0-3.8-0.9-6.9-2.6-9.2c-1.7-2.3-4-3.4-7-3.4s-5.2,1.1-6.9,3.4
			c-1.7,2.3-2.6,5.3-2.6,9.2s0.9,6.6,2.6,8.9C205.9,157.7,208.2,159,211,159.3z M218.5,104.3c1.7,0,3.2,0.6,4.4,1.8s1.8,2.7,1.8,4.4
			c0,1.7-0.6,3.1-1.8,4.3s-2.7,1.8-4.4,1.8c-1.7,0-3.2-0.6-4.3-1.8c-1.2-1.2-1.8-2.6-1.8-4.3s0.6-3.2,1.8-4.4
			S216.8,104.3,218.5,104.3L218.5,104.3z M247.1,142c2.2-6.2,6.1-11,11.8-14.2c4.3-2.4,8.9-3.6,13.8-3.6s9.5,1.3,13.6,4
			c5.1,3.1,8.8,7.7,11.1,13.8l-1.1,2.7c-2.5,1.1-5.2,3.1-8,5.9c-2.7,2.9-4.4,5.8-5.2,8.8h15.3v9.7h-21c-1.8,0-3.4-0.8-4.9-2.5H272
			c-1.5,1.7-3.1,2.5-5.1,2.5h-33.2v-9.7h27.6c-0.8-2.6-2.4-5.4-4.9-8.3c-2.7-3.1-5.6-5.2-8.5-6.4L247.1,142L247.1,142z M278.6,146.5
			c2.4-2.6,4.5-4.4,6.6-5.2c-1.5-2.7-3.6-4.6-6.2-5.9c-2-1-4.2-1.4-6.6-1.4c-2.5,0-5,0.5-7.2,1.6c-2.5,1.3-4.5,3.2-5.9,5.7
			c2.2,1,4.4,2.9,6.9,5.7c2.7,3,4.6,6.2,5.9,9.7h0.4C273.6,153.2,275.7,149.8,278.6,146.5L278.6,146.5z M326.4,100.9v57.8
			c0,2.7-0.9,5-2.6,6.9c-2,2.4-4.5,3.6-7.7,3.6h-18.4v-9.7h14.7c0.7,0,1.3-0.3,1.8-0.8c0.4-0.4,0.7-1,0.7-1.6v-56.1H326.4z
			 M351.2,100.9v65.9l-5.9,4.8h-5.7v-70.6H351.2z M408.6,125.3v34.1h4.9v9.7h-5c-0.5,7.6-3.5,13.5-9.1,17.5
			c-4.6,3.4-10.2,5.1-16.9,5.1c-1.1,0-2.4,0-3.7-0.1l-4.7-5.8v-4.1c2,0.3,4,0.5,5.9,0.5c11.2,0,16.9-5.5,16.9-16.4v-40.5
			L408.6,125.3L408.6,125.3z M441.4,125.3v33.4c0,2.5-0.8,4.8-2.5,6.9c-2.1,2.4-4.7,3.6-7.8,3.6h-18.4v-9.7h14.7
			c0.7,0,1.3-0.3,1.8-0.8c0.4-0.4,0.7-1,0.7-1.6v-31.7L441.4,125.3L441.4,125.3z M420.6,176.1c1.7,0,3.2,0.6,4.4,1.8
			s1.8,2.7,1.8,4.4s-0.6,3.2-1.8,4.4s-2.7,1.8-4.4,1.8s-3.1-0.6-4.3-1.8s-1.8-2.7-1.8-4.4s0.6-3.2,1.8-4.4S418.9,176.1,420.6,176.1z
			 M435.2,176.1c1.7,0,3.2,0.6,4.3,1.8c1.2,1.2,1.8,2.7,1.8,4.4s-0.6,3.2-1.8,4.4s-2.6,1.8-4.3,1.8c-1.7,0-3.2-0.6-4.4-1.8
			s-1.8-2.7-1.8-4.4s0.6-3.2,1.8-4.4S433.4,176.1,435.2,176.1L435.2,176.1z M475,169.1c-7,0-12.5-2.4-16.5-7.1
			c-3.4-4.1-5.1-9.1-5.1-15.1c0-7.1,2-12.7,6-16.7c4.2-4.1,9.6-6.1,16.1-6.1c4.8,0,8.9,1.2,12.4,3.5c4.6,3.3,6.9,8,6.9,14.1v17.6
			h3.1v9.7h-3.1c-0.4,6.9-2.9,12.2-7.2,16.1c-3.1,2.7-6.7,4.6-11,5.6c-3,0.7-5.9,1-8.8,1c-1,0-2.3-0.1-4.1-0.2h-0.3l-4.9-6v-4.2
			c2.6,0.4,5.1,0.7,7.3,0.7c10.4,0,16.1-4.4,17.1-13.1L475,169.1L475,169.1z M483.2,141.8c0-2.5-0.8-4.5-2.5-6
			c-1.5-1.3-3.2-1.9-5.1-1.9c-3.2,0-5.8,1.1-7.7,3.4c-1.9,2.3-2.9,5.4-2.9,9.4s1,7,3.1,9.2c2.1,2.3,5,3.4,8.6,3.4h6.5L483.2,141.8
			L483.2,141.8z M525.9,100.9v40.4c8.6-11.5,19.2-17.3,31.6-17.3c7.6,0,13.9,2.4,18.8,7.2c4.5,4.3,6.8,9.8,6.8,16.3v9.1
			c0,0.3,0,0.7-0.1,1.4v1.3h3.1v9.7h-1.9l-3.1-3.9h-0.3c-2.1,2.6-4.8,3.9-8,3.9h-75.6v-9.7h17.2v-58.5L525.9,100.9L525.9,100.9z
			 M571.5,148.1c-0.1-4.8-1.9-8.5-5.6-11.1c-2.8-2-6.2-3.1-10.2-3.1c-4.7,0-9.2,1.5-13.6,4.4c-6.4,4.3-11.8,11.2-16.1,21h43.2
			c1.6,0,2.4-0.8,2.4-2.4V148.1L571.5,148.1z M614.2,125.3v34.1h4.9v9.7h-3.3l-3.5-3.9H612c-2.2,2.6-4.9,3.9-8.1,3.9h-18.4v-9.7
			h14.4c0.9,0,1.5-0.3,1.9-0.8c0.6-0.5,0.9-1.1,0.9-1.9v-31.5H614.2L614.2,125.3z M594.7,104.3c1.7,0,3.2,0.6,4.4,1.8
			c1.2,1.2,1.8,2.7,1.8,4.4c0,1.7-0.6,3.1-1.8,4.3c-1.2,1.2-2.7,1.8-4.4,1.8c-1.7,0-3.2-0.6-4.4-1.8c-1.2-1.2-1.8-2.6-1.8-4.3
			c0-1.7,0.6-3.2,1.8-4.4C591.6,104.9,593,104.3,594.7,104.3z M609.2,104.3c1.7,0,3.2,0.6,4.4,1.8c1.2,1.2,1.8,2.7,1.8,4.4
			c0,1.7-0.6,3.1-1.8,4.3c-1.2,1.2-2.7,1.8-4.4,1.8c-1.7,0-3.1-0.6-4.3-1.8c-1.2-1.2-1.8-2.6-1.8-4.3c0-1.7,0.6-3.2,1.8-4.4
			C606.1,104.9,607.6,104.3,609.2,104.3z M647.1,100.9v58.5h4.9v9.7h-3.2l-3.6-3.9h-0.2c-2.2,2.6-4.9,3.9-8.1,3.9h-18.4v-9.7H633
			c0.8,0,1.4-0.3,1.9-0.8c0.4-0.6,0.6-1.2,0.6-1.6v-56.1H647.1z M679.9,100.9v57.8c0,2.7-0.9,5-2.6,6.9c-2,2.4-4.5,3.6-7.7,3.6
			h-18.4v-9.7h14.7c0.7,0,1.3-0.3,1.8-0.8c0.4-0.4,0.7-1,0.7-1.6v-56.1H679.9L679.9,100.9z M774.2,100.9v66c0,7.6-2.3,13.5-6.9,17.9
			c-4.8,4.8-11.6,7.1-20.2,7.1h-9.4c-8.3,0-14.9-2.2-19.7-6.6c-4.9-4.4-7.3-10.5-7.3-18.5v-17.1l5.9-4.8h5.7v20.8
			c0,6,1.5,10.3,4.5,12.7c3,2.4,8.2,3.7,15.7,3.7s12.2-1.1,15.2-3.3c3.3-2.5,5-6.9,5-13.1v-64.9L774.2,100.9L774.2,100.9z
			 M799,100.9V157c0,0.6,0.2,1.1,0.6,1.5c0.4,0.6,1,0.9,1.8,0.9h2.5v9.7h-6.2c-2.6,0-4.9-0.9-6.9-2.8c-2.3-2.1-3.4-4.7-3.4-7.7
			v-57.8L799,100.9L799,100.9z M848.6,99.5v10.8l-19.9,12.1c8.2,3,14.8,7.9,19.7,14.7c4.4,6.2,6.7,13,6.7,20.4c0,3.4-1,6.2-2.9,8.4
			c-1.9,2.2-4.4,3.2-7.5,3.2h-41.6v-9.7H841c1.7,0,2.5-0.8,2.5-2.5c-0.5-6-2.7-11.2-6.6-15.6c-5.2-6.2-12.4-9.7-21.4-10.7
			c-0.4,0-0.7-0.3-0.7-0.8V119L848.6,99.5L848.6,99.5z"/>
		<polygon class="st1" points="81,317.3 86.2,317.3 67.1,294.8 84.9,276.1 79.9,276.1 55.8,301 55.8,276.1 51.4,276.1 51.4,317.3 
			55.8,317.3 55.8,306.4 64.2,297.9 		"/>
		<path class="st1" d="M112.7,302.7l9.9-22.1l9.9,22.1H112.7L112.7,302.7z M139,317.3h4.6l-18.8-41.1h-4.3l-18.8,41.1h4.5l4.9-11
			H134L139,317.3L139,317.3z"/>
		<path class="st1" d="M171.9,302.7l9.9-22.1l9.9,22.1H171.9L171.9,302.7z M198.2,317.3h4.6L184,276.1h-4.3l-18.8,41.1h4.5l4.9-11
			h22.9L198.2,317.3L198.2,317.3z"/>
		<polygon class="st1" points="226.2,317.3 253.6,317.3 253.6,313.5 230.5,313.5 230.5,276.1 226.2,276.1 		"/>
		<path class="st1" d="M324.7,300.5h-10.9v-20.6h10.9c4.1,0,7.2,0.9,9.3,2.7c2.2,1.8,3.2,4.3,3.2,7.7s-1.1,5.8-3.2,7.6
			C331.8,299.6,328.7,300.5,324.7,300.5L324.7,300.5z M342.2,317.3l-10.1-14.1c3-1,5.3-2.6,7-4.8c1.6-2.2,2.4-4.9,2.4-8.1
			c0-4.4-1.5-7.8-4.5-10.3c-3-2.5-7.1-3.8-12.3-3.8h-15.4v41.1h4.4v-13h11.1c1.1,0,2.2-0.1,3.3-0.2l9.4,13.2L342.2,317.3
			L342.2,317.3z"/>
		<polygon class="st1" points="372.8,313.5 372.8,298.2 394.1,298.2 394.1,294.5 372.8,294.5 372.8,279.9 396.7,279.9 396.7,276.1 
			368.5,276.1 368.5,317.3 397.5,317.3 397.5,313.5 		"/>
		<path class="st1" d="M428.8,302.7l9.9-22.1l9.9,22.1H428.8L428.8,302.7z M455.1,317.3h4.6l-18.8-41.1h-4.3l-18.8,41.1h4.5l4.9-11
			h22.9L455.1,317.3L455.1,317.3z"/>
		<polygon class="st1" points="483.1,317.3 510.5,317.3 510.5,313.5 487.4,313.5 487.4,276.1 483.1,276.1 		"/>
		<polygon class="st1" points="570.6,313.5 570.6,298.2 591.9,298.2 591.9,294.5 570.6,294.5 570.6,279.9 594.5,279.9 594.5,276.1 
			566.3,276.1 566.3,317.3 595.4,317.3 595.4,313.5 		"/>
		<path class="st1" d="M633.5,317.6c3.4,0,6.2-0.5,8.5-1.5c2.3-1,4-2.4,5.1-4.1c1.1-1.7,1.7-3.6,1.7-5.7c0-2.5-0.7-4.5-1.9-6
			c-1.3-1.5-2.9-2.6-4.7-3.3c-1.9-0.7-4.3-1.5-7.3-2.2c-2.5-0.6-4.6-1.2-6.1-1.7c-1.5-0.5-2.8-1.3-3.8-2.3c-1-1-1.5-2.3-1.5-4
			c0-2.2,0.9-4,2.7-5.4s4.5-2.1,8.1-2.1c1.9,0,3.8,0.3,5.8,0.9c2,0.6,3.8,1.4,5.5,2.6l1.5-3.5c-1.7-1.1-3.6-2-5.8-2.7
			c-2.3-0.7-4.6-1-6.9-1c-3.4,0-6.2,0.5-8.5,1.5c-2.3,1-4,2.4-5.1,4.1s-1.7,3.6-1.7,5.7c0,2.5,0.7,4.6,2,6.1
			c1.3,1.5,2.9,2.6,4.7,3.3c1.8,0.7,4.3,1.5,7.4,2.3c2.6,0.6,4.6,1.2,6.1,1.7s2.7,1.3,3.7,2.3c1,1,1.5,2.3,1.5,3.9
			c0,2.2-0.9,3.9-2.8,5.3c-1.8,1.4-4.6,2-8.3,2c-2.6,0-5.2-0.5-7.6-1.4c-2.5-0.9-4.4-2.1-5.9-3.6l-1.7,3.4c1.5,1.6,3.7,2.9,6.5,3.9
			C627.5,317.1,630.4,317.6,633.5,317.6L633.5,317.6z"/>
		<polygon class="st1" points="682.3,317.3 686.7,317.3 686.7,279.9 701.1,279.9 701.1,276.1 667.8,276.1 667.8,279.9 682.3,279.9 
					"/>
		<path class="st1" d="M727,302.7l9.9-22.1l9.9,22.1H727L727,302.7z M753.3,317.3h4.6l-18.8-41.1h-4.3L716,317.3h4.5l4.9-11h22.9
			L753.3,317.3L753.3,317.3z"/>
		<polygon class="st1" points="787.2,317.3 791.6,317.3 791.6,279.9 806.1,279.9 806.1,276.1 772.8,276.1 772.8,279.9 787.2,279.9 
					"/>
		<polygon class="st1" points="833.9,313.5 833.9,298.2 855.2,298.2 855.2,294.5 833.9,294.5 833.9,279.9 857.8,279.9 857.8,276.1 
			829.6,276.1 829.6,317.3 858.7,317.3 858.7,313.5 		"/>
		<path class="st1" d="M53.6,412v-33.6h12.2c3.6,0,6.8,0.7,9.5,2.1c2.7,1.4,4.8,3.4,6.3,5.9c1.5,2.5,2.2,5.4,2.2,8.7
			s-0.7,6.2-2.2,8.7c-1.5,2.5-3.6,4.5-6.3,5.9c-2.7,1.4-5.9,2.1-9.5,2.1L53.6,412L53.6,412z M49.3,415.8H66c4.4,0,8.2-0.9,11.5-2.6
			c3.3-1.7,5.9-4.2,7.8-7.3c1.8-3.1,2.8-6.7,2.8-10.7s-0.9-7.5-2.8-10.7c-1.8-3.1-4.4-5.5-7.8-7.3c-3.3-1.7-7.2-2.6-11.5-2.6H49.3
			V415.8L49.3,415.8z"/>
		<polygon class="st1" points="137.5,412 137.5,396.7 158.8,396.7 158.8,393 137.5,393 137.5,378.4 161.4,378.4 161.4,374.6 
			133.1,374.6 133.1,415.8 162.2,415.8 162.2,412 		"/>
		<polygon class="st1" points="237,374.6 221.1,410.4 205.4,374.6 200.7,374.6 218.9,415.8 223.2,415.8 241.4,374.6 		"/>
		<polygon class="st1" points="287,412 287,396.7 308.3,396.7 308.3,393 287,393 287,378.4 310.9,378.4 310.9,374.6 282.7,374.6 
			282.7,415.8 311.8,415.8 311.8,412 		"/>
		<polygon class="st1" points="357.3,415.8 384.7,415.8 384.7,412 361.7,412 361.7,374.6 357.3,374.6 		"/>
		<path class="st1" d="M444.5,412.2c-3.3,0-6.2-0.7-8.8-2.2c-2.7-1.5-4.7-3.5-6.2-6.1c-1.5-2.6-2.3-5.5-2.3-8.7
			c0-3.2,0.7-6.1,2.3-8.7c1.5-2.6,3.6-4.6,6.2-6.1c2.7-1.5,5.6-2.2,8.8-2.2c3.3,0,6.2,0.7,8.8,2.2c2.6,1.5,4.7,3.5,6.2,6.1
			c1.5,2.6,2.2,5.5,2.2,8.7c0,3.2-0.7,6.1-2.2,8.7c-1.5,2.6-3.5,4.6-6.2,6.1C450.7,411.5,447.7,412.2,444.5,412.2z M444.5,416.1
			c4.1,0,7.8-0.9,11-2.7c3.3-1.8,5.8-4.3,7.7-7.5c1.9-3.2,2.8-6.8,2.8-10.7c0-4-0.9-7.5-2.8-10.7c-1.9-3.2-4.5-5.7-7.7-7.5
			c-3.3-1.8-6.9-2.7-11-2.7c-4.1,0-7.8,0.9-11.1,2.7c-3.3,1.8-5.9,4.3-7.8,7.5c-1.9,3.2-2.8,6.7-2.8,10.7s0.9,7.5,2.8,10.7
			c1.9,3.2,4.4,5.7,7.8,7.5C436.7,415.2,440.4,416.1,444.5,416.1L444.5,416.1z"/>
		<path class="st1" d="M526.4,398.9h-10.9v-20.6h10.9c4.1,0,7.2,0.9,9.3,2.7c2.2,1.8,3.2,4.3,3.2,7.7s-1.1,5.8-3.2,7.5
			C533.6,398,530.5,398.9,526.4,398.9L526.4,398.9z M526.5,374.6h-15.4v41.1h4.4v-13h11.1c5.3,0,9.4-1.2,12.3-3.7
			c3-2.5,4.5-5.9,4.5-10.3s-1.5-7.8-4.5-10.3C535.9,375.9,531.8,374.6,526.5,374.6L526.5,374.6z"/>
		<polygon class="st1" points="627.2,374.6 609.5,405.1 591.7,374.6 588.1,374.6 588.1,415.8 592.2,415.8 592.2,383 608.4,410.5 
			610.5,410.5 626.6,382.9 626.6,415.8 630.8,415.8 630.8,374.6 		"/>
		<polygon class="st1" points="683.9,412 683.9,396.7 705.2,396.7 705.2,393 683.9,393 683.9,378.4 707.8,378.4 707.8,374.6 
			679.5,374.6 679.5,415.8 708.6,415.8 708.6,412 		"/>
		<polygon class="st1" points="784.3,374.6 784.3,408 757.8,374.6 754.2,374.6 754.2,415.8 758.5,415.8 758.5,382.4 785,415.8 
			788.6,415.8 788.6,374.6 		"/>
		<polygon class="st1" points="845.3,415.8 849.7,415.8 849.7,378.4 864.1,378.4 864.1,374.6 830.9,374.6 830.9,378.4 845.3,378.4 
					"/>
	</g>
</g>
</svg>
