<?xml version="1.0" encoding="UTF-8"?><svg id="Layer_1" xmlns="http://www.w3.org/2000/svg" viewBox="0 0 544.8 805.79"><defs><style>.cls-1{fill:#fff;}</style></defs><polygon class="cls-1" points="544.8 134.32 387.48 134.32 387.48 71.65 544.63 71.65 544.63 0 315.81 0 315.81 205.97 473.15 205.97 473.15 289.32 230.15 289.32 230.15 .83 158.49 .83 158.49 360.97 544.8 360.97 544.8 134.32"/><polygon class="cls-1" points="71.65 443.98 71.65 .83 0 .83 0 515.65 544.8 515.65 544.8 443.98 71.65 443.98"/><path class="cls-1" d="m17.35,648.22c0,3.88.99,6.58,2.97,8.1,1.98,1.52,5.49,2.28,10.53,2.28,7.76,0,11.64-2.06,11.64-6.18,0-1.48-.48-2.64-1.44-3.48-.96-.84-2.78-1.68-5.46-2.52-3.84-1.2-6.56-2.68-8.16-4.44-1.76-1.92-2.64-4.5-2.64-7.74,0-4.28,1.34-7.48,4.02-9.6,2.24-1.76,5.26-2.64,9.06-2.64,2.4,0,4.74.36,7.02,1.08v5.52c-2.2-.56-4.12-.84-5.76-.84-2.28,0-4.06.58-5.34,1.74-1.28,1.16-1.92,2.76-1.92,4.8,0,1.64.46,2.89,1.38,3.75.92.86,2.82,1.81,5.7,2.85,3.68,1.32,6.3,2.76,7.86,4.32,1.92,1.88,2.88,4.26,2.88,7.14,0,4.52-2.02,7.84-6.06,9.96-2.88,1.56-6.42,2.34-10.62,2.34h-5.94c-4.68,0-8.5-1.14-11.46-3.42-3.72-2.8-5.58-6.92-5.58-12.36v-6.06l3.72-2.94h3.6v8.34Zm7.92,19.92c1.08,0,2,.38,2.76,1.14.76.76,1.14,1.68,1.14,2.76s-.38,2-1.14,2.76c-.76.76-1.68,1.14-2.76,1.14s-2-.38-2.76-1.14c-.76-.76-1.14-1.68-1.14-2.76s.38-2,1.14-2.76c.76-.76,1.68-1.14,2.76-1.14Zm9.12,0c1.08,0,2,.38,2.76,1.14.76.76,1.14,1.68,1.14,2.76s-.38,2-1.14,2.76c-.76.76-1.68,1.14-2.76,1.14s-1.94-.38-2.7-1.14c-.76-.76-1.14-1.68-1.14-2.76s.38-2,1.14-2.76c.76-.76,1.66-1.14,2.7-1.14Zm39-45.42v26.16c0,4.96-1.52,8.8-4.56,11.52-1.96,1.8-4.48,3.06-7.56,3.78-1.44.28-2.94.42-4.5.42-.52,0-1.22-.04-2.1-.12l-2.94-3.66v-2.58c1.28.2,2.52.3,3.72.3,7.08,0,10.62-3.44,10.62-10.32v-25.5h7.32Zm15.6-15.36v35.34c0,.4.12.72.36.96.24.36.62.54,1.14.54h1.56v6.12h-3.9c-1.64,0-3.08-.58-4.32-1.74-1.44-1.32-2.16-2.94-2.16-4.86v-36.36h7.32Zm14.58,36.84c-1.8-2.4-2.7-5.3-2.7-8.7,0-3.08.78-5.74,2.34-7.98,2.52-3.68,6.16-5.52,10.92-5.52,3.6,0,6.62,1.12,9.06,3.36,2.84,2.6,4.26,5.98,4.26,10.14,0,3.28-.9,6.18-2.7,8.7h4.14v6.12h-9c-2.6,0-4.48-.26-5.64-.78h-.3c-1.12.52-3,.78-5.64.78h-16.68v-6.12h11.94Zm6.12-34.68c1.08,0,2,.38,2.76,1.14.76.76,1.14,1.68,1.14,2.76s-.38,1.94-1.14,2.7c-.76.76-1.68,1.14-2.76,1.14s-1.94-.38-2.7-1.14c-.76-.76-1.14-1.66-1.14-2.7s.38-2,1.14-2.76c.76-.76,1.66-1.14,2.7-1.14Zm4.44,34.62c1.8-.2,3.25-1.03,4.35-2.49,1.1-1.46,1.65-3.33,1.65-5.61,0-2.4-.54-4.32-1.62-5.76-1.08-1.44-2.54-2.16-4.38-2.16s-3.25.72-4.35,2.16c-1.1,1.44-1.65,3.36-1.65,5.76s.55,4.15,1.65,5.61c1.1,1.46,2.55,2.29,4.35,2.49Zm4.68-34.62c1.08,0,2,.38,2.76,1.14.76.76,1.14,1.68,1.14,2.76s-.38,1.94-1.14,2.7c-.76.76-1.68,1.14-2.76,1.14s-1.99-.37-2.73-1.11c-.74-.74-1.11-1.65-1.11-2.73s.37-2,1.11-2.76c.74-.76,1.65-1.14,2.73-1.14Zm18,23.76c1.36-3.92,3.84-6.9,7.44-8.94,2.68-1.52,5.58-2.28,8.7-2.28s5.98.84,8.58,2.52c3.24,1.96,5.56,4.86,6.96,8.7l-.72,1.68c-1.6.72-3.28,1.96-5.04,3.72-1.68,1.84-2.78,3.68-3.3,5.52h9.66v6.12h-13.2c-1.12,0-2.14-.52-3.06-1.56h-.3c-.92,1.04-1.98,1.56-3.18,1.56h-20.88v-6.12h17.4c-.48-1.64-1.5-3.38-3.06-5.22-1.72-1.92-3.5-3.26-5.34-4.02l-.66-1.68Zm19.86,2.82c1.48-1.64,2.86-2.74,4.14-3.3-.96-1.68-2.26-2.92-3.9-3.72-1.24-.6-2.62-.9-4.14-.9-1.6,0-3.12.34-4.56,1.02-1.6.8-2.84,2-3.72,3.6,1.36.6,2.8,1.8,4.32,3.6,1.68,1.88,2.92,3.92,3.72,6.12h.24c.76-2.24,2.06-4.38,3.9-6.42Zm30.06-28.74v36.36c0,1.68-.54,3.12-1.62,4.32-1.24,1.52-2.86,2.28-4.86,2.28h-11.58v-6.12h9.24c.44,0,.82-.16,1.14-.48.28-.28.42-.62.42-1.02v-35.34h7.26Zm15.6,0v41.46l-3.72,3h-3.6v-44.46h7.32Zm36.12,15.36v21.48h3.06v6.12h-3.12c-.32,4.8-2.22,8.48-5.7,11.04-2.88,2.12-6.42,3.18-10.62,3.18-.72,0-1.5-.02-2.34-.06l-2.94-3.66v-2.58c1.28.2,2.52.3,3.72.3,7.08,0,10.62-3.44,10.62-10.32v-25.5h7.32Zm20.7,0v21c0,1.56-.52,3-1.56,4.32-1.32,1.52-2.96,2.28-4.92,2.28h-11.58v-6.12h9.24c.44,0,.82-.16,1.14-.48.28-.28.42-.62.42-1.02v-19.98h7.26Zm-13.14,31.98c1.08,0,2,.38,2.76,1.14.76.76,1.14,1.68,1.14,2.76s-.38,2-1.14,2.76c-.76.76-1.68,1.14-2.76,1.14s-1.94-.38-2.7-1.14c-.76-.76-1.14-1.68-1.14-2.76s.38-2,1.14-2.76c.76-.76,1.66-1.14,2.7-1.14Zm9.18,0c1.08,0,1.99.38,2.73,1.14.74.76,1.11,1.68,1.11,2.76s-.37,2-1.11,2.76c-.74.76-1.65,1.14-2.73,1.14s-2-.38-2.76-1.14c-.76-.76-1.14-1.68-1.14-2.76s.38-2,1.14-2.76c.76-.76,1.68-1.14,2.76-1.14Zm25.08-4.38c-4.4,0-7.86-1.5-10.38-4.5-2.12-2.56-3.18-5.72-3.18-9.48,0-4.48,1.26-7.98,3.78-10.5,2.64-2.56,6.02-3.84,10.14-3.84,3,0,5.6.74,7.8,2.22,2.88,2.08,4.32,5.04,4.32,8.88v11.1h1.92v6.12h-1.98c-.28,4.32-1.8,7.7-4.56,10.14-1.92,1.72-4.22,2.9-6.9,3.54-1.88.44-3.72.66-5.52.66-.6,0-1.46-.04-2.58-.12h-.18l-3.06-3.78v-2.64c1.64.28,3.18.42,4.62.42,6.56,0,10.14-2.74,10.74-8.22h-4.98Zm5.16-17.22c0-1.6-.52-2.86-1.56-3.78-.92-.8-2-1.2-3.24-1.2-2.04,0-3.66.72-4.86,2.16-1.2,1.44-1.8,3.42-1.8,5.94s.66,4.38,1.98,5.82c1.32,1.44,3.12,2.16,5.4,2.16h4.08v-11.1Zm26.88-25.74v25.44c5.44-7.24,12.08-10.86,19.92-10.86,4.8,0,8.74,1.52,11.82,4.56,2.84,2.72,4.26,6.14,4.26,10.26v5.7c0,.16-.02.46-.06.9v.84h1.98v6.12h-1.2l-1.98-2.46h-.18c-1.32,1.64-3,2.46-5.04,2.46h-47.58v-6.12h10.8v-36.84h7.26Zm28.68,29.76c-.04-3.04-1.22-5.36-3.54-6.96-1.76-1.28-3.9-1.92-6.42-1.92-2.96,0-5.82.92-8.58,2.76-4.04,2.68-7.42,7.08-10.14,13.2h27.18c1,0,1.5-.5,1.5-1.5v-5.58Zm26.88-14.4v21.48h3.06v6.12h-2.1l-2.22-2.46h-.12c-1.36,1.64-3.06,2.46-5.1,2.46h-11.58v-6.12h9.06c.56,0,.96-.16,1.2-.48.36-.32.54-.72.54-1.2v-19.8h7.26Zm-12.24-13.2c1.08,0,2,.38,2.76,1.14.76.76,1.14,1.68,1.14,2.76s-.38,1.94-1.14,2.7c-.76.76-1.68,1.14-2.76,1.14s-2-.38-2.76-1.14c-.76-.76-1.14-1.66-1.14-2.7s.38-2,1.14-2.76c.76-.76,1.68-1.14,2.76-1.14Zm9.12,0c1.08,0,2,.38,2.76,1.14.76.76,1.14,1.68,1.14,2.76s-.38,1.94-1.14,2.7c-.76.76-1.68,1.14-2.76,1.14s-1.94-.38-2.7-1.14c-.76-.76-1.14-1.66-1.14-2.7s.38-2,1.14-2.76c.76-.76,1.66-1.14,2.7-1.14Zm23.82-2.16v36.84h3.06v6.12h-2.04l-2.28-2.46h-.12c-1.36,1.64-3.06,2.46-5.1,2.46h-11.58v-6.12h9.24c.48,0,.88-.16,1.2-.48.24-.4.36-.74.36-1.02v-35.34h7.26Zm20.7,0v36.36c0,1.68-.54,3.12-1.62,4.32-1.24,1.52-2.86,2.28-4.86,2.28h-11.58v-6.12h9.24c.44,0,.82-.16,1.14-.48.28-.28.42-.62.42-1.02v-35.34h7.26Zm59.34,0v41.52c0,4.76-1.44,8.52-4.32,11.28-3.04,3-7.28,4.5-12.72,4.5h-5.94c-5.24,0-9.38-1.38-12.42-4.14-3.08-2.76-4.62-6.64-4.62-11.64v-10.74l3.72-3h3.6v13.08c0,3.8.95,6.47,2.85,8.01,1.9,1.54,5.19,2.31,9.87,2.31s7.7-.7,9.54-2.1c2.08-1.6,3.12-4.34,3.12-8.22v-40.86h7.32Zm15.6,0v35.34c0,.4.12.72.36.96.24.36.62.54,1.14.54h1.56v6.12h-3.9c-1.64,0-3.08-.58-4.32-1.74-1.44-1.32-2.16-2.94-2.16-4.86v-36.36h7.32Zm31.2-.84v6.78l-12.54,7.62c5.16,1.88,9.3,4.96,12.42,9.24,2.8,3.92,4.2,8.2,4.2,12.84,0,2.16-.61,3.92-1.83,5.28-1.22,1.36-2.79,2.04-4.71,2.04h-26.16v-6.12h23.82c1.04,0,1.56-.52,1.56-1.56-.32-3.76-1.7-7.04-4.14-9.84-3.28-3.88-7.78-6.12-13.5-6.72-.28,0-.42-.16-.42-.48v-6.84l21.3-12.24Z"/><polygon class="cls-1" points="32.28 743.57 35.53 743.57 23.55 729.4 34.76 717.67 31.61 717.67 16.41 733.32 16.41 717.67 13.67 717.67 13.67 743.57 16.41 743.57 16.41 736.76 21.7 731.39 32.28 743.57"/><path class="cls-1" d="m52.22,734.43l6.22-13.91,6.22,13.91h-12.43Zm16.54,9.14h2.89l-11.84-25.9h-2.7l-11.84,25.9h2.85l3.11-6.92h14.43l3.11,6.92Z"/><path class="cls-1" d="m89.52,734.43l6.22-13.91,6.22,13.91h-12.43Zm16.54,9.14h2.89l-11.84-25.9h-2.7l-11.84,25.9h2.85l3.11-6.92h14.43l3.11,6.92Z"/><polygon class="cls-1" points="123.67 743.57 140.91 743.57 140.91 741.2 126.41 741.2 126.41 717.67 123.67 717.67 123.67 743.57"/><path class="cls-1" d="m185.64,733.02h-6.88v-12.99h6.88c2.57,0,4.53.56,5.88,1.68,1.36,1.12,2.03,2.73,2.03,4.83s-.68,3.64-2.03,4.77c-1.36,1.13-3.32,1.7-5.88,1.7Zm11.06,10.54l-6.33-8.88c1.9-.62,3.36-1.62,4.38-3.02,1.02-1.39,1.54-3.1,1.54-5.12,0-2.76-.94-4.93-2.81-6.51-1.88-1.58-4.46-2.37-7.77-2.37h-9.69v25.9h2.74v-8.21h6.96c.71,0,1.41-.04,2.07-.11l5.92,8.33h3Z"/><polygon class="cls-1" points="215.95 741.2 215.95 731.58 229.34 731.58 229.34 729.25 215.95 729.25 215.95 720.03 230.97 720.03 230.97 717.67 213.21 717.67 213.21 743.57 231.52 743.57 231.52 741.2 215.95 741.2"/><path class="cls-1" d="m251.21,734.43l6.22-13.91,6.22,13.91h-12.43Zm16.54,9.14h2.89l-11.84-25.9h-2.7l-11.84,25.9h2.85l3.11-6.92h14.43l3.11,6.92Z"/><polygon class="cls-1" points="285.36 743.57 302.6 743.57 302.6 741.2 288.1 741.2 288.1 717.67 285.36 717.67 285.36 743.57"/><polygon class="cls-1" points="340.45 741.2 340.45 731.58 353.85 731.58 353.85 729.25 340.45 729.25 340.45 720.03 355.47 720.03 355.47 717.67 337.71 717.67 337.71 743.57 356.03 743.57 356.03 741.2 340.45 741.2"/><path class="cls-1" d="m380.04,743.79c2.12,0,3.91-.31,5.37-.94,1.46-.63,2.53-1.48,3.24-2.55s1.05-2.26,1.05-3.57c0-1.58-.41-2.83-1.22-3.76s-1.81-1.62-2.98-2.07c-1.17-.46-2.71-.92-4.61-1.39-1.6-.39-2.88-.76-3.83-1.09-.95-.33-1.74-.81-2.37-1.44-.63-.63-.94-1.46-.94-2.5,0-1.38.57-2.51,1.72-3.39,1.15-.88,2.85-1.31,5.12-1.31,1.18,0,2.39.18,3.63.54,1.23.36,2.39.89,3.48,1.61l.92-2.18c-1.04-.71-2.26-1.28-3.68-1.68-1.42-.41-2.87-.61-4.35-.61-2.12,0-3.9.32-5.33.96-1.43.64-2.49,1.5-3.18,2.57-.69,1.07-1.04,2.26-1.04,3.57,0,1.6.41,2.87,1.24,3.81.83.94,1.82,1.63,2.98,2.09,1.16.46,2.71.93,4.66,1.42,1.63.4,2.9.76,3.81,1.09.91.33,1.68.81,2.31,1.42s.94,1.44.94,2.48c0,1.36-.58,2.46-1.74,3.31-1.16.85-2.9,1.28-5.22,1.28-1.65,0-3.26-.29-4.81-.87-1.55-.58-2.8-1.34-3.74-2.28l-1.07,2.11c.96,1.01,2.32,1.83,4.09,2.44,1.76.62,3.61.92,5.53.92Z"/><polygon class="cls-1" points="410.75 743.57 413.49 743.57 413.49 720.03 422.59 720.03 422.59 717.67 401.65 717.67 401.65 720.03 410.75 720.03 410.75 743.57"/><path class="cls-1" d="m438.91,734.43l6.22-13.91,6.22,13.91h-12.43Zm16.54,9.14h2.89l-11.84-25.9h-2.7l-11.84,25.9h2.85l3.11-6.92h14.43l3.11,6.92Z"/><polygon class="cls-1" points="476.8 743.57 479.53 743.57 479.53 720.03 488.64 720.03 488.64 717.67 467.7 717.67 467.7 720.03 476.8 720.03 476.8 743.57"/><polygon class="cls-1" points="506.17 741.2 506.17 731.58 519.57 731.58 519.57 729.25 506.17 729.25 506.17 720.03 521.2 720.03 521.2 717.67 503.44 717.67 503.44 743.57 521.75 743.57 521.75 741.2 506.17 741.2"/><path class="cls-1" d="m15.04,803.2v-21.16h7.66c2.27,0,4.25.45,5.96,1.35,1.7.9,3.02,2.15,3.96,3.74s1.41,3.42,1.41,5.49-.47,3.9-1.41,5.5c-.94,1.59-2.26,2.84-3.96,3.74-1.7.9-3.69,1.35-5.96,1.35h-7.66Zm-2.74,2.37h10.55c2.74,0,5.15-.55,7.25-1.65,2.1-1.1,3.72-2.63,4.88-4.59,1.16-1.96,1.74-4.2,1.74-6.72s-.58-4.75-1.74-6.71c-1.16-1.96-2.79-3.49-4.88-4.59-2.1-1.1-4.51-1.65-7.25-1.65h-10.55v25.9Z"/><polygon class="cls-1" points="67.84 803.2 67.84 793.58 81.23 793.58 81.23 791.25 67.84 791.25 67.84 782.03 82.86 782.03 82.86 779.67 65.1 779.67 65.1 805.57 83.41 805.57 83.41 803.2 67.84 803.2"/><polygon class="cls-1" points="130.48 779.67 120.49 802.16 110.57 779.67 107.61 779.67 119.08 805.57 121.78 805.57 133.25 779.67 130.48 779.67"/><polygon class="cls-1" points="161.96 803.2 161.96 793.58 175.36 793.58 175.36 791.25 161.96 791.25 161.96 782.03 176.99 782.03 176.99 779.67 159.23 779.67 159.23 805.57 177.54 805.57 177.54 803.2 161.96 803.2"/><polygon class="cls-1" points="206.22 805.57 223.46 805.57 223.46 803.2 208.95 803.2 208.95 779.67 206.22 779.67 206.22 805.57"/><path class="cls-1" d="m261.05,803.35c-2.05,0-3.9-.46-5.57-1.39s-2.97-2.21-3.92-3.85-1.42-3.47-1.42-5.5.47-3.85,1.42-5.49,2.26-2.92,3.92-3.85c1.67-.92,3.52-1.39,5.57-1.39s3.9.46,5.55,1.39c1.65.93,2.95,2.21,3.89,3.85.94,1.64,1.41,3.47,1.41,5.49s-.47,3.85-1.41,5.5c-.94,1.64-2.23,2.92-3.89,3.85-1.65.92-3.5,1.39-5.55,1.39Zm0,2.44c2.56,0,4.88-.57,6.94-1.7,2.06-1.13,3.68-2.71,4.87-4.72,1.18-2.01,1.78-4.26,1.78-6.75s-.59-4.74-1.78-6.75c-1.18-2.01-2.81-3.58-4.87-4.72-2.06-1.13-4.37-1.7-6.94-1.7s-4.89.57-6.97,1.72c-2.08,1.15-3.71,2.72-4.88,4.72-1.17,2-1.76,4.24-1.76,6.73s.59,4.74,1.76,6.73c1.17,2,2.8,3.57,4.88,4.72,2.08,1.15,4.41,1.72,6.97,1.72Z"/><path class="cls-1" d="m312.63,794.98h-6.88v-12.95h6.88c2.57,0,4.53.56,5.88,1.68,1.36,1.12,2.03,2.73,2.03,4.83s-.68,3.63-2.03,4.75c-1.36,1.12-3.32,1.68-5.88,1.68Zm.07-15.32h-9.69v25.9h2.74v-8.18h6.96c3.31,0,5.9-.78,7.77-2.35,1.87-1.57,2.81-3.73,2.81-6.49s-.94-4.93-2.81-6.51c-1.88-1.58-4.46-2.37-7.77-2.37Z"/><polygon class="cls-1" points="376.08 779.67 364.95 798.87 353.7 779.67 351.44 779.67 351.44 805.57 354.07 805.57 354.07 784.96 364.24 802.27 365.54 802.27 375.71 784.85 375.71 805.57 378.34 805.57 378.34 779.67 376.08 779.67"/><polygon class="cls-1" points="411.75 803.2 411.75 793.58 425.14 793.58 425.14 791.25 411.75 791.25 411.75 782.03 426.77 782.03 426.77 779.67 409.01 779.67 409.01 805.57 427.33 805.57 427.33 803.2 411.75 803.2"/><polygon class="cls-1" points="474.95 779.67 474.95 800.68 458.26 779.67 456 779.67 456 805.57 458.74 805.57 458.74 784.55 475.39 805.57 477.65 805.57 477.65 779.67 474.95 779.67"/><polygon class="cls-1" points="513.35 805.57 516.09 805.57 516.09 782.03 525.19 782.03 525.19 779.67 504.25 779.67 504.25 782.03 513.35 782.03 513.35 805.57"/></svg>